# xmcd CD database file
#
# Track frame offsets:
#	150
#	33188
#	58896
#	71814
#	99693
#	117833
#	126683
#	149173
#	172433
#	183573
#	198810
#	218842
#
# Disc length: 3032 seconds
#
# Revision: 3
# Processed by: cddbd v1.5.1PL0 Copyright (c) Steve Scherf et al.
# Submitted via: CDex 1.51
#
DISCID=cb0bd60c
DTITLE=Acoustic Blues-Duo - 5th street
DYEAR=2000
DGENRE=Blues
TTITLE0=High Lonesome Hill
TTITLE1=Drunken Barrelhouse
TTITLE2=5th Street Twist
TTITLE3=Stop Breaking Down
TTITLE4=I Hate A Man Like You
TTITLE5=All Night Long
TTITLE6=Stagolee
TTITLE7=Keep Your Lamp Trimmed And Burning
TTITLE8=Cackling Hen
TTITLE9=Good Til Now
TTITLE10=That Will Be Alright
TTITLE11=Kurt Weill Rag
EXTD=YEAR: 2000
EXTT0=
EXTT1=
EXTT2=
EXTT3=
EXTT4=
EXTT5=
EXTT6=
EXTT7=
EXTT8=
EXTT9=
EXTT10=
EXTT11=
PLAYORDER=
